<svg width="107" height="103" viewBox="0 0 107 103" fill="none" xmlns="http://www.w3.org/2000/svg">
<g clip-path="url(#clip0_73_72)">
<path d="M0 48.3736C0.678311 47.2965 1.66368 46.9748 2.91143 46.9832C9.84248 47.0196 16.7707 46.986 23.7018 47.0196C24.5113 47.0224 24.8937 46.8125 25.2175 46.0152C26.0549 43.9562 27.0487 41.9615 27.981 39.9416C28.1094 39.6674 28.249 39.3988 28.4583 38.9736C27.1575 38.9736 25.9935 38.9736 24.8267 38.9736C22.1107 38.9736 19.3947 38.982 16.6786 38.9708C15.1461 38.9652 14.2194 38.1539 14.2278 36.8698C14.2361 35.6137 15.2103 34.7772 16.7037 34.7744C21.3012 34.7688 25.8986 34.7856 30.4933 34.752C30.9176 34.7492 31.4898 34.5757 31.7382 34.2708C37.843 26.7788 45.5585 21.8522 54.9264 19.5273C55.0883 19.4882 55.2474 19.4294 55.4791 19.3567C55.4791 17.7704 55.521 16.201 55.44 14.6399C55.4261 14.349 54.9543 13.9769 54.6138 13.8258C52.0541 12.6816 50.4657 10.7736 50.1754 7.96478C49.86 4.94335 51.038 2.51222 53.6954 1.04627C54.8036 0.436387 56.1909 0.0950775 57.461 0.0643037C62.265 -0.0476011 67.0718 0.0139465 71.8758 0.0223394C75.7754 0.0279346 78.6589 2.40591 79.3205 6.14353C79.9011 9.42794 77.8745 12.676 74.4299 13.9797C74.3043 14.0272 74.1759 14.072 74.0308 14.1223C74.0308 15.8737 74.0308 17.6082 74.0308 19.3847C78.8487 20.4897 83.3596 22.2802 87.4546 24.9827C98.2517 32.1082 104.725 42.0762 106.565 54.92C108.022 65.1118 105.839 74.5845 100.449 83.3355C99.9071 84.2167 99.212 84.7399 98.1401 84.5972C97.2468 84.4797 96.5769 83.9426 96.4792 83.1033C96.401 82.443 96.5797 81.6317 96.9286 81.0638C99.4548 76.9541 101.308 72.5674 102.079 67.8087C104.345 53.829 100.476 41.8216 90.0032 32.2397C82.377 25.2597 73.1654 22.1655 62.8847 22.6495C46.2089 23.4356 32.1988 34.9674 27.995 51.1377C22.6187 71.8149 35.3252 92.9313 56.1602 97.718C66.2986 100.046 75.915 98.4902 84.8447 93.0348C85.2829 92.7662 85.7491 92.4837 86.2403 92.3718C87.2871 92.1312 88.2055 92.6767 88.5879 93.6447C88.9787 94.6323 88.6912 95.6562 87.6388 96.2409C85.3946 97.4914 83.167 98.8203 80.8027 99.8023C59.3564 108.713 34.5715 98.3475 25.7758 76.8198C25.4241 75.9609 25.0026 75.7064 24.1038 75.7148C19.7157 75.7651 15.3276 75.7455 10.9395 75.7315C9.47122 75.7287 8.54169 75.0517 8.377 73.9355C8.16485 72.5031 9.19209 71.468 10.8865 71.4652C14.7861 71.454 18.6856 71.4624 22.588 71.4596C22.9677 71.4596 23.3445 71.4596 23.8107 71.4596C23.3836 68.7571 22.9677 66.1413 22.5406 63.4472C19.5593 63.4472 16.5698 63.4528 13.5802 63.4444C12.3324 63.4416 11.4782 62.7814 11.308 61.7239C11.0902 60.3754 12.0309 59.2843 13.4741 59.2731C16.0868 59.2536 18.6968 59.2675 21.3096 59.2675C21.6892 59.2675 22.066 59.2675 22.4652 59.2675C22.8085 56.5958 23.1435 53.9884 23.4924 51.2663C23.1407 51.2663 22.7332 51.2663 22.3256 51.2663C15.8496 51.2663 9.37074 51.2468 2.89468 51.2831C1.63297 51.2915 0.669936 50.9222 0.0055828 49.8396C0 49.35 0 48.8632 0 48.3736ZM64.7801 10.0714C67.2142 10.0714 69.6483 10.0826 72.0824 10.0686C73.8493 10.0574 75.1445 8.84883 75.178 7.21782C75.2115 5.65115 74.0028 4.3055 72.2666 4.28591C67.2588 4.22436 62.251 4.22437 57.2461 4.28312C55.4428 4.3055 54.2565 5.64556 54.3207 7.29056C54.3849 8.91877 55.6689 10.063 57.4777 10.0714C59.9118 10.0798 62.346 10.0714 64.7801 10.0714ZM59.7667 18.5202C63.1443 18.5202 66.427 18.5202 69.732 18.5202C69.732 17.1578 69.732 15.7813 69.732 14.3741C66.3823 14.3741 63.094 14.3741 59.7667 14.3741C59.7667 15.8009 59.7667 17.1522 59.7667 18.5202Z" fill="#833D7B"/>
<path d="M-1.62157e-05 72.8752C0.586178 72.0779 1.2282 71.3281 2.35314 71.5128C3.33571 71.675 3.98052 72.2681 4.15359 73.2753C4.3127 74.1957 3.80746 75.1441 2.96445 75.4966C2.03771 75.8855 1.20029 75.7176 0.51081 74.965C0.329369 74.7664 0.167468 74.551 -0.00280762 74.3412C-1.62157e-05 73.8516 -1.62157e-05 73.3648 -1.62157e-05 72.8752Z" fill="#833D7B"/>
<path d="M64.8163 28.1608C82.7929 28.2643 97.2747 42.8567 97.177 60.7699C97.0793 78.8649 82.4887 93.2978 64.4199 93.1747C46.7141 93.0544 32.2853 78.3781 32.3718 60.5797C32.4584 42.6385 47.0518 28.0573 64.8163 28.1608ZM64.8079 32.4216C49.2794 32.402 36.5869 45.0305 36.5562 60.5349C36.5255 76.1904 49.1538 88.9335 64.7381 88.9755C80.1913 89.0175 92.9592 76.2883 92.9871 60.8147C93.0206 45.12 80.4342 32.444 64.8079 32.4216Z" fill="#833D7B"/>
<path d="M91.0695 89.0874C91.0779 87.9208 92.0521 86.9584 93.1938 86.9948C94.2936 87.0283 95.2371 87.9795 95.2566 89.0762C95.2762 90.2036 94.2824 91.2164 93.1547 91.2248C92.013 91.2304 91.0611 90.2568 91.0695 89.0874Z" fill="#833D7B"/>
<path d="M58.2426 60.5209C58.3292 60.0285 58.304 59.3067 58.5915 58.7472C59.013 57.9219 58.6613 57.4966 58.1226 56.9791C56.8916 55.7957 55.6885 54.5815 54.4994 53.3562C53.4945 52.3238 53.4386 51.0845 54.3095 50.2004C55.1665 49.3332 56.4645 49.3863 57.4638 50.3655C58.7814 51.6608 60.0542 53.0009 61.3997 54.2654C61.6481 54.5004 62.198 54.6179 62.5302 54.52C64.0125 54.0835 65.4919 53.9968 66.9323 54.5452C67.5547 54.7829 67.8674 54.6095 68.2721 54.201C71.3873 51.0537 74.4942 47.9008 77.6736 44.8178C78.19 44.3171 79.0637 43.875 79.742 43.9114C81.361 43.9981 82.1035 45.9173 81.1098 47.2154C80.6464 47.8197 80.0686 48.3372 79.5271 48.88C76.7719 51.6468 74.0224 54.4193 71.245 57.1637C70.7872 57.6141 70.7146 57.961 70.9128 58.5933C71.7474 61.2678 71.1808 63.6598 69.0705 65.5286C67.0411 67.3275 64.674 67.7359 62.1757 66.6197C59.6495 65.495 58.4017 63.4472 58.2426 60.5209ZM64.7354 58.4031C63.5016 58.4199 62.4828 59.4382 62.4744 60.6607C62.466 61.9141 63.563 62.9996 64.8108 62.9716C66.0251 62.9464 67.0635 61.8973 67.0718 60.6887C67.083 59.4242 66.0195 58.3863 64.7354 58.4031Z" fill="#833D7B"/>
<path d="M43.3142 62.8402C42.8034 62.7702 42.273 62.7647 41.7873 62.6192C40.8215 62.331 40.2381 61.4414 40.3525 60.4706C40.4698 59.4691 41.0197 58.7668 42.0329 58.627C42.848 58.5151 43.6938 58.5067 44.5145 58.5794C45.7064 58.6857 46.4461 59.525 46.4545 60.6273C46.4657 61.7603 45.6645 62.636 44.4642 62.7674C44.0874 62.8094 43.7022 62.773 43.3226 62.773C43.317 62.7954 43.317 62.8178 43.3142 62.8402Z" fill="#833D7B"/>
<path d="M66.868 39.2646C66.868 39.6451 66.8932 40.0312 66.8625 40.4088C66.7703 41.5027 65.9636 42.2665 64.8945 42.3C63.7752 42.3364 62.8345 41.6006 62.7284 40.49C62.6502 39.6647 62.6474 38.8198 62.7312 37.9945C62.84 36.8838 63.7835 36.1649 64.9141 36.2096C65.9915 36.2544 66.7787 37.0097 66.8652 38.1176C66.8932 38.4981 66.868 38.8841 66.868 39.2646Z" fill="#833D7B"/>
<path d="M62.6809 82.0263C62.6809 81.6794 62.6586 81.3297 62.6837 80.9856C62.7647 79.8861 63.6579 79.0216 64.7159 79.002C65.757 78.9825 66.7396 79.8329 66.8289 80.9156C66.8904 81.6402 66.8764 82.376 66.8401 83.1033C66.7843 84.2616 65.8715 85.1652 64.7828 85.1876C63.6495 85.2128 62.7312 84.2951 62.6726 83.067C62.6558 82.7201 62.6698 82.3732 62.6698 82.0263C62.6753 82.0263 62.6781 82.0263 62.6809 82.0263Z" fill="#833D7B"/>
<path d="M86.1343 62.8065C85.7881 62.8065 85.4392 62.8289 85.0959 62.8037C83.9151 62.7142 83.0944 61.8358 83.1 60.6887C83.1056 59.5333 83.9207 58.6857 85.1266 58.6297C85.8188 58.5961 86.5139 58.5961 87.2034 58.6325C88.3534 58.6912 89.1629 59.5109 89.2048 60.616C89.2495 61.7406 88.4232 62.689 87.2759 62.8009C86.8991 62.8373 86.5139 62.8065 86.1343 62.8065Z" fill="#833D7B"/>
</g>
<defs>
<clipPath id="clip0_73_72">
<rect width="107" height="103" fill="white"/>
</clipPath>
</defs>
</svg>
