<svg width="107" height="109" viewBox="0 0 107 109" fill="none" xmlns="http://www.w3.org/2000/svg">
<g clip-path="url(#clip0_73_43)">
<path d="M89.2652 109C88.1748 108.241 87.8775 107.183 87.9568 105.892C88.0446 104.484 87.9766 103.071 87.9766 101.396C85.6685 101.541 83.451 101.556 81.2704 101.837C74.7284 102.679 68.2006 103.631 61.6643 104.533C59.0419 104.894 56.4279 105.309 53.7942 105.568C47.779 106.159 42.013 105.028 36.3489 103.009C26.9155 99.6475 17.4509 96.3774 7.98347 93.1158C3.98466 91.7367 1.62559 88.987 1.34522 84.7984C1.07901 80.8202 2.97929 77.8714 6.52215 76.0288C6.58445 75.9975 6.63543 75.9463 6.52215 76.0288C5.13446 73.0885 3.56552 70.2648 2.43272 67.2734C-0.104771 60.5682 -0.600374 53.6271 0.679697 46.5693C0.965731 44.9883 1.98242 44.1807 3.28798 44.4509C4.57372 44.7153 5.15428 45.7561 4.89374 47.303C3.254 57.0195 5.14295 65.9568 10.7277 74.0895C11.2459 74.843 11.835 75.3008 12.7724 75.5624C20.8833 77.8316 28.9715 80.1832 37.0683 82.5093C37.5299 82.6429 38.0028 82.7453 38.4899 82.8647C38.0736 81.679 37.5554 80.6183 37.3345 79.5008C36.1252 73.3928 40.6196 68.0412 47.0115 67.9729C51.4634 67.9274 55.9182 67.9786 60.3729 67.9473C61.0215 67.9416 61.7068 67.8023 62.31 67.5634C65.2412 66.409 68.2063 65.3796 71.3555 65.0668C72.1796 64.9843 72.4628 64.5891 72.678 63.8753C77.2999 48.5996 70.6928 31.6832 56.949 23.6359C42.5482 15.2018 24.7943 17.8833 13.4266 30.1875C12.982 30.6709 12.4637 31.1884 11.8747 31.4131C10.9911 31.7486 10.1273 31.4785 9.52975 30.6595C8.92653 29.8292 8.89254 28.8226 9.65436 28.0264C11.195 26.4197 12.7271 24.7733 14.4433 23.3714C22.2455 16.9961 31.2372 14.1099 41.2682 14.5051C58.2999 15.1762 73.6749 28.1344 77.3792 44.8546C78.8235 51.3807 78.7584 57.8555 76.9771 64.3019C76.9119 64.5407 76.8723 64.7853 76.81 65.0867C81.5762 65.8232 85.7903 67.936 89.908 70.299C90.3385 70.5464 90.8964 70.6743 91.3977 70.6772C95.32 70.7084 99.2452 70.6914 103.168 70.6942C105.246 70.6942 105.991 71.4336 105.991 73.5008C105.994 84.3576 105.977 95.2144 106.011 106.071C106.014 107.365 105.654 108.343 104.533 109C99.4463 109 94.3543 109 89.2652 109ZM87.9143 97.057C87.937 96.9148 87.9681 96.8096 87.9681 96.7073C87.9709 89.3993 87.9823 82.0941 87.9483 74.7861C87.9454 74.4591 87.6509 73.9928 87.3592 73.8335C85.6289 72.8809 83.8985 71.9141 82.0973 71.1094C78.6904 69.5881 75.1136 68.6554 71.3923 69.4345C68.6849 70.0004 66.0681 71.0013 63.4004 71.7719C62.5649 72.0136 61.6983 72.2809 60.8459 72.2895C56.1108 72.3435 51.3756 72.2809 46.6433 72.335C43.6442 72.3691 41.3446 74.7293 41.3701 77.5871C41.3984 80.4989 43.7802 82.805 46.8076 82.8192C50.0587 82.8335 53.3099 82.8221 56.561 82.8221C58.2574 82.8221 59.9538 82.805 61.6502 82.8278C62.9614 82.8448 63.8478 83.6894 63.8846 84.8922C63.9243 86.1405 63.0492 87.0249 61.6898 87.0988C61.4434 87.113 61.1942 87.1073 60.9478 87.1073C53.528 87.1073 46.1081 87.1187 38.6882 87.0931C37.8896 87.0903 37.0683 86.9595 36.298 86.7405C28.1984 84.4344 20.1158 82.0685 12.0049 79.8079C11.0109 79.5292 9.81295 79.5463 8.81325 79.8164C6.80252 80.3595 5.55077 82.2733 5.57625 84.3007C5.60457 86.4619 6.89314 88.1879 9.11061 88.9614C15.6639 91.2476 22.22 93.5225 28.779 95.7945C32.7749 97.1765 36.7596 98.5897 40.7782 99.9006C45.7342 101.521 50.8064 101.723 55.9465 100.993C61.8144 100.159 67.6852 99.3603 73.5588 98.5698C78.2401 97.9385 82.8875 96.9774 87.6481 97.1594C87.7104 97.1679 87.7755 97.1139 87.9143 97.057ZM101.635 75.0335C98.4664 75.0335 95.4078 75.0335 92.3011 75.0335C92.3011 84.9548 92.3011 94.822 92.3011 104.703C95.4418 104.703 98.5032 104.703 101.635 104.703C101.635 94.8191 101.635 84.9775 101.635 75.0335Z" fill="#833D7B"/>
<path d="M13.5569 48.321C13.5569 46.3362 13.5455 44.3513 13.5597 42.3665C13.5909 37.9476 17.0318 34.5097 21.4412 34.4955C22.8176 34.4898 24.2194 34.3818 25.5618 34.6007C29.1726 35.1922 31.8375 37.905 32.0499 41.6869C32.2992 46.1371 32.3218 50.6271 32.0471 55.0745C31.7894 59.2289 28.7846 61.9332 24.6102 62.2659C23.2112 62.3768 21.7782 62.3398 20.3877 62.1692C16.4285 61.6858 13.5852 58.3958 13.5597 54.3806C13.5455 52.3617 13.5569 50.3399 13.5569 48.321ZM27.8387 48.3181C27.8387 46.4044 27.8387 44.4907 27.8387 42.577C27.8387 42.5059 27.8359 42.4348 27.8331 42.3637C27.7396 40.231 26.3208 38.8092 24.1911 38.741C23.2735 38.7125 22.3559 38.7097 21.4384 38.7438C19.3965 38.8234 17.8587 40.2651 17.8276 42.3125C17.7652 46.3504 17.7652 50.3911 17.8276 54.429C17.8615 56.5105 19.3483 57.8811 21.4412 57.955C22.322 57.9863 23.2056 57.9835 24.0891 57.9607C26.4397 57.9067 27.8047 56.5361 27.8387 54.1588C27.8614 52.2167 27.8387 50.2688 27.8387 48.3181Z" fill="#833D7B"/>
<path d="M64.8843 38.2803C64.638 38.6244 64.2726 39.304 63.7515 39.8272C57.3257 46.3106 50.8772 52.7712 44.4372 59.2375C43.6867 59.9882 42.9532 60.7559 42.1857 61.4896C41.1379 62.4905 39.872 62.5303 38.9884 61.6204C38.1048 60.7076 38.1728 59.4763 39.2149 58.4271C46.4989 51.102 53.7942 43.7883 61.0809 36.4633C61.8059 35.7325 62.6414 35.4794 63.5844 35.8604C64.4425 36.2102 64.8702 36.9182 64.8843 38.2803Z" fill="#833D7B"/>
<path d="M43.4601 47.1039C40.1098 47.1067 37.3713 44.4053 37.3373 41.0584C37.3033 37.6802 40.056 34.9078 43.4488 34.9049C46.8472 34.9021 49.6056 37.666 49.5744 41.047C49.5433 44.3911 46.8104 47.0982 43.4601 47.1039ZM45.2414 41.1437C45.3151 40.1314 44.5957 39.2641 43.5989 39.1731C42.6275 39.0821 41.7382 39.8527 41.6618 40.8508C41.5825 41.8688 42.3075 42.7304 43.3072 42.8015C44.3295 42.8755 45.165 42.1617 45.2414 41.1437Z" fill="#833D7B"/>
<path d="M65.7537 57.3378C65.7339 60.753 62.984 63.4629 59.5828 63.4202C56.2495 63.3804 53.5931 60.6335 53.6101 57.2468C53.6271 53.8886 56.3401 51.1559 59.6734 51.1474C63.0378 51.1388 65.7764 53.9227 65.7537 57.3378ZM59.7102 55.5009C58.6765 55.4867 57.8836 56.2459 57.8666 57.261C57.8524 58.2449 58.6737 59.1037 59.6508 59.1236C60.6221 59.1435 61.4746 58.3075 61.4916 57.3208C61.5086 56.3028 60.7382 55.5151 59.7102 55.5009Z" fill="#833D7B"/>
<path d="M10.0565 6.90417C10.7956 7.37905 11.4442 7.62644 11.852 8.0871C13.2057 9.61979 14.4858 11.2179 15.7658 12.8131C16.6494 13.9164 16.539 15.2216 15.5506 16.0122C14.6217 16.7543 13.336 16.578 12.4694 15.543C11.1525 13.9762 9.86108 12.3923 8.56969 10.8056C7.9608 10.0577 7.72858 9.15629 8.28365 8.35724C8.68013 7.78568 9.38814 7.43308 10.0565 6.90417Z" fill="#833D7B"/>
<path d="M72.2391 9.56587C72.0748 9.88719 71.8964 10.436 71.5622 10.8625C70.3416 12.4151 69.0814 13.9421 67.807 15.4521C66.8328 16.6066 65.53 16.7857 64.5728 15.9554C63.6128 15.1222 63.5589 13.9165 64.4907 12.7564C65.7736 11.1611 67.082 9.58577 68.3932 8.01328C69.0559 7.21992 69.914 6.99812 70.8655 7.35641C71.7463 7.68911 72.1428 8.41991 72.2391 9.56587Z" fill="#833D7B"/>
<path d="M37.0966 5.00182C37.0966 4.04354 37.0768 3.08525 37.1022 2.12697C37.1362 0.847355 38.034 -0.0199356 39.2546 -3.05969e-05C40.4242 0.0198744 41.3021 0.878635 41.3219 2.10706C41.3503 4.05775 41.3503 6.00845 41.3219 7.96199C41.305 9.21316 40.3421 10.143 39.1724 10.1146C38.0368 10.089 37.1589 9.18472 37.0994 7.98473C37.0966 7.95061 37.0966 7.91364 37.0966 7.87952C37.0966 6.91839 37.0966 5.96011 37.0966 5.00182Z" fill="#833D7B"/>
<path d="M6.05769 39.3892C4.85975 39.4062 3.85438 38.4337 3.86854 37.2764C3.8827 36.1475 4.84559 35.1664 5.9614 35.1437C7.14235 35.1209 8.14489 36.1077 8.13639 37.2821C8.12789 38.4422 7.20749 39.3721 6.05769 39.3892Z" fill="#833D7B"/>
</g>
<defs>
<clipPath id="clip0_73_43">
<rect width="106.014" height="109" fill="white"/>
</clipPath>
</defs>
</svg>
