<svg width="75" height="109" viewBox="0 0 75 109" fill="none" xmlns="http://www.w3.org/2000/svg">
<g clip-path="url(#clip0_73_68)">
<path d="M40.5939 -0.000330993C42.5208 0.357866 44.465 0.644993 46.3717 1.08563C50.1707 1.96123 53.7077 3.48783 57.0257 5.50908C57.7285 5.93551 58.2729 6.54103 57.9676 7.3285C57.7717 7.83737 57.1957 8.35192 56.6715 8.53955C56.274 8.68169 55.6259 8.41446 55.1939 8.15861C51.5273 5.98952 47.6275 4.41744 43.3993 3.7579C31.0171 1.82477 20.4495 5.34704 11.9815 14.4555C5.72276 21.1873 2.94045 29.315 3.31488 38.4234C3.59138 45.1325 5.82069 51.2304 9.82136 56.6801C9.96825 56.882 10.1295 57.0724 10.2736 57.2743C11.0023 58.2949 10.936 59.1875 10.0892 59.7845C9.32019 60.3246 8.34955 60.12 7.67557 59.2017C6.87774 58.1129 6.07992 57.0156 5.37425 55.8671C-7.54078 34.8955 3.90533 7.20626 28.013 1.15102C30.0868 0.630779 32.2297 0.374923 34.338 -0.00317383C36.4233 -0.000330993 38.5086 -0.000330993 40.5939 -0.000330993Z" fill="#833D7B"/>
<path d="M24.1134 78.6982C26.6625 78.6982 29.0905 78.6982 31.6683 78.6982C31.3169 76.7736 30.98 74.8802 30.6228 72.9897C29.7875 68.5748 28.958 64.1571 28.0767 59.7507C27.9845 59.2873 27.6158 58.8552 27.3076 58.46C26.3399 57.2205 25.3404 56.0066 24.2402 54.6392C21.5356 55.819 18.5834 55.7508 15.9105 53.6528C13.2549 51.5661 12.5262 48.7688 13.1339 45.5763C4.56808 39.8963 4.5508 31.0124 13.1339 26.1284C12.5204 22.9331 13.2261 20.0846 15.9163 17.9922C18.5661 15.9283 21.4924 15.8033 24.5224 17.1621C26.2592 11.6158 32.976 9.76508 37.3856 14.2994C39.3816 12.2582 41.7665 11.2604 44.6554 11.9427C47.4867 12.6108 49.2234 14.4671 50.1307 17.182C53.1924 15.8232 56.1216 15.917 58.7686 17.9723C61.4299 20.0362 62.1932 22.8308 61.5682 26.1228C65.5285 28.1355 67.9105 31.2853 67.9278 35.7856C67.9451 40.2914 65.6063 43.4641 61.6258 45.5052C62.9795 53.0785 55.8509 57.2774 50.1307 54.4715C49.5576 56.2312 48.5667 57.701 47.0028 58.7614C46.804 58.895 46.7061 59.2418 46.6543 59.5062C45.4849 65.624 44.3299 71.7446 43.1778 77.8652C43.1317 78.1068 43.1202 78.357 43.0856 78.6839C45.554 78.6839 48.0022 78.6839 50.6031 78.6839C50.6031 77.3052 50.6031 75.9378 50.6031 74.5704C50.6031 74.1809 50.6348 73.7857 50.5973 73.402C50.2488 69.8143 51.8214 67.4832 54.958 65.6041C64.2612 60.0293 69.7625 51.768 71.1335 41.1244C72.5102 30.4439 69.2095 21.1279 61.6863 13.3016C61.4875 13.0969 61.2744 12.9036 61.0843 12.6932C60.4046 11.9313 60.3729 11.0472 60.9979 10.4047C61.6661 9.71391 62.6569 9.66274 63.3741 10.4644C65.059 12.3464 66.8563 14.1715 68.2705 16.2439C80.3848 33.9832 74.8692 57.8602 56.1792 68.6857C54.5692 69.6181 53.8578 70.7354 53.8808 72.6088C53.9672 79.2383 53.9384 85.8706 53.9067 92.503C53.8693 100.426 48.5783 106.885 40.7555 108.636C31.4408 110.72 21.864 103.96 20.9941 94.5782C20.7349 91.798 20.8213 88.9835 20.8069 86.1862C20.781 81.504 20.7695 76.8247 20.8156 72.1426C20.83 70.7013 20.2107 69.7489 19.0356 68.9842C17.1807 67.776 15.3488 66.528 13.5516 65.2373C12.4571 64.4527 12.2987 63.5146 12.9813 62.7044C13.6149 61.9539 14.5424 61.988 15.5591 62.71C17.2181 63.887 18.8656 65.0895 20.6024 66.1499C22.9527 67.5827 24.1451 69.5755 24.1163 72.3018C24.0962 74.4055 24.1134 76.5234 24.1134 78.6982ZM39.1224 41.5366C39.0763 41.7612 39.0302 41.8891 39.0302 42.0199C39.0274 45.636 39.0014 49.2521 39.0446 52.8682C39.0677 54.824 40.6029 56.4444 42.4635 56.6292C44.641 56.8424 46.4382 55.6655 46.8732 53.613C47.0604 52.7232 46.8991 51.7623 47.1007 50.8782C47.2159 50.3693 47.6508 49.7268 48.103 49.5534C48.5552 49.38 49.2292 49.6586 49.7621 49.8576C50.0242 49.9571 50.1739 50.3295 50.3871 50.5711C51.6457 52.0011 53.6763 52.5156 55.4851 51.8703C57.2853 51.225 58.495 49.525 58.5094 47.626C58.5295 44.6154 55.8595 42.4861 52.8612 43.1201C51.4758 43.4129 50.5973 43.0206 50.3554 42.0028C50.125 41.0306 50.7817 40.2573 52.1699 39.9702C54.9321 39.3988 57.3832 40.0441 59.3965 42.0028C59.9552 42.5458 60.3441 42.543 60.9403 42.1848C63.498 40.6468 64.8229 38.3867 64.6587 35.4615C64.483 32.3088 62.7865 30.0914 59.7767 28.9542C57.5733 28.1241 57.4898 27.8938 58.1954 25.7276C58.469 24.889 58.541 23.8883 58.3654 23.0269C57.942 20.9261 56.0842 19.553 53.9471 19.5416C51.7984 19.5302 49.9752 20.8493 49.4337 22.8023C48.8404 24.9487 49.7131 26.9784 51.7321 28.1326C52.9303 28.8178 53.2961 29.6251 52.818 30.5178C52.3255 31.436 51.3203 31.5867 50.1019 30.93C46.5016 28.9883 45.0183 24.6985 46.6514 20.9573C46.7925 20.6332 46.9855 20.3148 47.0373 19.9765C47.4406 17.3952 45.7758 15.1608 43.2729 14.976C40.9715 14.8054 38.9554 16.676 38.9986 19.2516C39.0879 24.5336 39.0187 29.8156 39.0331 35.0976C39.0331 35.6207 39.0763 36.1693 39.2347 36.664C39.805 38.4351 41.5447 39.5409 43.3909 39.3647C45.3149 39.1827 46.7666 37.6931 47.0373 35.6235C47.2102 34.3158 47.7632 33.7558 48.8087 33.8354C49.8168 33.9121 50.3352 34.6427 50.2776 35.9135C50.1509 38.8075 47.9072 41.5395 44.9808 42.3241C42.9503 42.8699 41.0119 42.5686 39.1224 41.5366ZM35.6949 41.5252C35.2053 41.7441 34.8568 41.909 34.4996 42.054C29.8221 43.9786 24.3755 40.4876 24.436 35.6093C24.4504 34.5233 25.0351 33.8581 26.0029 33.8325C26.9447 33.8069 27.4776 34.3755 27.685 35.3932C27.8434 36.175 28.0392 37.008 28.4569 37.6675C29.3757 39.1145 31.1643 39.6774 32.7974 39.2026C34.5371 38.6995 35.6661 37.3434 35.6748 35.5382C35.7064 29.972 35.6892 24.4057 35.6805 18.8394C35.6805 18.4556 35.62 18.0576 35.4991 17.6937C34.7704 15.4934 32.3682 14.3989 30.2109 15.2603C28.0882 16.1131 27.034 18.7001 27.973 20.7526C29.7933 24.7411 28.1199 29.392 24.2459 31.1119C23.2436 31.5554 22.3536 31.3337 21.9101 30.5292C21.455 29.7019 21.7459 28.8632 22.6935 28.2947C22.8778 28.1838 23.0766 28.0985 23.258 27.9848C25.3836 26.6657 26.0922 23.9679 24.8738 21.8414C23.667 19.7349 21.0345 18.9219 18.8138 19.968C16.5643 21.0284 15.611 23.5869 16.5989 25.901C17.3362 27.6266 17.0252 28.2407 15.1616 28.8831C12.1143 29.935 10.3603 32.0813 10.078 35.2312C9.82165 38.111 11.0429 40.3796 13.494 42.0028C14.2227 42.4833 14.7123 42.5998 15.4727 41.8692C17.6012 39.8338 20.2165 39.3476 23.0564 40.0669C24.0155 40.3113 24.5512 41.1614 24.364 41.9801C24.1653 42.85 23.4135 43.3219 22.3968 43.2025C22.1837 43.1769 21.9734 43.1286 21.7632 43.0831C19.5943 42.6254 17.3391 43.808 16.5125 45.8378C15.6801 47.8818 16.4606 50.2613 18.3501 51.4297C20.2539 52.6095 22.7396 52.2854 24.2431 50.6536C24.4591 50.4176 24.6002 50.0395 24.8623 49.9343C25.4182 49.7098 26.1239 49.3743 26.5933 49.5477C27.0599 49.7211 27.4257 50.4205 27.6216 50.9663C27.7915 51.4382 27.6504 52.0181 27.6648 52.5498C27.731 54.9377 29.4131 56.6434 31.6971 56.6491C34.0071 56.652 35.6604 54.9775 35.6834 52.5554C35.7093 50.0736 35.6892 47.5918 35.6892 45.1101C35.6949 43.9559 35.6949 42.7988 35.6949 41.5252ZM50.5397 82.0555C41.7319 82.0555 32.9875 82.0555 24.1999 82.0555C24.1999 85.0775 24.1999 88.0283 24.1999 91.0673C27.1867 91.0673 30.09 91.0673 32.9932 91.0673C34.5572 91.0673 35.3205 91.5819 35.3349 92.6337C35.3493 93.6913 34.5515 94.257 33.0365 94.2598C30.666 94.2627 28.2956 94.2598 25.9222 94.2598C25.3664 94.2598 24.8076 94.2598 24.2373 94.2598C25.1619 101.097 31.1787 106.097 37.8983 105.739C44.4538 105.387 50.3035 100.048 50.3957 94.2598C47.4521 94.2598 44.5114 94.2627 41.5677 94.2598C40.1507 94.2598 39.3644 93.6685 39.3816 92.6337C39.3989 91.6274 40.1449 91.073 41.5101 91.0702C44.134 91.0645 46.7551 91.0702 49.379 91.0673C49.7592 91.0673 50.1422 91.0673 50.5397 91.0673C50.5397 87.9857 50.5397 85.0547 50.5397 82.0555ZM43.2412 60.0264C39.9894 59.4692 39.9894 59.4692 37.2848 57.3627C35.7842 59.0485 33.8199 59.8558 31.4667 59.9724C32.6678 66.2977 33.8429 72.4979 35.0181 78.6925C36.6368 78.6925 38.1662 78.6925 39.7013 78.6925C40.8851 72.4553 42.0545 66.2807 43.2412 60.0264Z" fill="#833D7B"/>
</g>
<defs>
<clipPath id="clip0_73_68">
<rect width="74.7079" height="109" fill="white"/>
</clipPath>
</defs>
</svg>
