<svg width="28" height="28" viewBox="0 0 28 28" fill="none" xmlns="http://www.w3.org/2000/svg">
<path d="M18.8287 6.60138C18.0535 5.71612 17.6263 4.57945 17.6264 3.40277H14.1215V17.4676C14.095 18.2289 13.7739 18.9501 13.2258 19.4792C12.6777 20.0082 11.9455 20.3037 11.1838 20.3032C9.57314 20.3032 8.23471 18.9875 8.23471 17.3542C8.23471 15.4032 10.1176 13.94 12.0572 14.5412V10.9569C8.14397 10.4352 4.71851 13.475 4.71851 17.3542C4.71851 21.1312 7.84906 23.8194 11.1724 23.8194C14.734 23.8194 17.6264 20.9271 17.6264 17.3542V10.2197C19.0476 11.2403 20.7539 11.7879 22.5037 11.7849V8.28009C22.5037 8.28009 20.3713 8.38217 18.8287 6.60138Z" fill="#833D7B"/>
</svg>
