<svg width="28" height="28" viewBox="0 0 28 28" fill="none" xmlns="http://www.w3.org/2000/svg">
<path d="M8.84726 2.26849H18.375C22.0047 2.26849 24.9537 5.21757 24.9537 8.8472V18.375C24.9537 20.1198 24.2606 21.7931 23.0269 23.0268C21.7931 24.2606 20.1198 24.9537 18.375 24.9537H8.84726C5.21763 24.9537 2.26855 22.0046 2.26855 18.375V8.8472C2.26855 7.10242 2.96167 5.4291 4.19541 4.19535C5.42916 2.96161 7.10248 2.26849 8.84726 2.26849ZM8.62041 4.53701C7.53744 4.53701 6.49883 4.96722 5.73305 5.73299C4.96728 6.49877 4.53707 7.53738 4.53707 8.62035V18.6018C4.53707 20.859 6.36323 22.6852 8.62041 22.6852H18.6019C19.6849 22.6852 20.7235 22.255 21.4892 21.4892C22.255 20.7234 22.6852 19.6848 22.6852 18.6018V8.62035C22.6852 6.36317 20.8591 4.53701 18.6019 4.53701H8.62041ZM19.566 6.2384C19.942 6.2384 20.3027 6.38778 20.5686 6.65367C20.8345 6.91957 20.9838 7.28019 20.9838 7.65623C20.9838 8.03226 20.8345 8.39288 20.5686 8.65878C20.3027 8.92467 19.942 9.07405 19.566 9.07405C19.19 9.07405 18.8293 8.92467 18.5635 8.65878C18.2976 8.39288 18.1482 8.03226 18.1482 7.65623C18.1482 7.28019 18.2976 6.91957 18.5635 6.65367C18.8293 6.38778 19.19 6.2384 19.566 6.2384ZM13.6111 7.93979C15.1153 7.93979 16.5578 8.5373 17.6214 9.60087C18.6849 10.6644 19.2824 12.107 19.2824 13.6111C19.2824 15.1152 18.6849 16.5577 17.6214 17.6213C16.5578 18.6849 15.1153 19.2824 13.6111 19.2824C12.107 19.2824 10.6645 18.6849 9.60093 17.6213C8.53736 16.5577 7.93985 15.1152 7.93985 13.6111C7.93985 12.107 8.53736 10.6644 9.60093 9.60087C10.6645 8.5373 12.107 7.93979 13.6111 7.93979ZM13.6111 10.2083C12.7087 10.2083 11.8432 10.5668 11.205 11.205C10.5669 11.8431 10.2084 12.7086 10.2084 13.6111C10.2084 14.5136 10.5669 15.3791 11.205 16.0172C11.8432 16.6554 12.7087 17.0139 13.6111 17.0139C14.5136 17.0139 15.3791 16.6554 16.0173 16.0172C16.6554 15.3791 17.0139 14.5136 17.0139 13.6111C17.0139 12.7086 16.6554 11.8431 16.0173 11.205C15.3791 10.5668 14.5136 10.2083 13.6111 10.2083Z" fill="#833D7B"/>
</svg>
