<svg width="28" height="28" viewBox="0 0 28 28" fill="none" xmlns="http://www.w3.org/2000/svg">
<path d="M21.5509 3.40277C22.1525 3.40277 22.7295 3.64177 23.1549 4.0672C23.5804 4.49263 23.8194 5.06964 23.8194 5.67129V21.5509C23.8194 22.1526 23.5804 22.7296 23.1549 23.155C22.7295 23.5804 22.1525 23.8194 21.5509 23.8194H5.67123C5.06958 23.8194 4.49257 23.5804 4.06714 23.155C3.64171 22.7296 3.40271 22.1526 3.40271 21.5509V5.67129C3.40271 5.06964 3.64171 4.49263 4.06714 4.0672C4.49257 3.64177 5.06958 3.40277 5.67123 3.40277H21.5509ZM20.9837 20.9838V14.9722C20.9837 13.9915 20.5942 13.051 19.9007 12.3576C19.2073 11.6641 18.2667 11.2745 17.286 11.2745C16.3219 11.2745 15.199 11.8643 14.6546 12.7491V11.49H11.49V20.9838H14.6546V15.3919C14.6546 14.5185 15.3578 13.8039 16.2312 13.8039C16.6523 13.8039 17.0562 13.9712 17.354 14.269C17.6518 14.5668 17.8191 14.9707 17.8191 15.3919V20.9838H20.9837ZM7.80364 9.70925C8.30902 9.70925 8.79371 9.50849 9.15107 9.15113C9.50843 8.79377 9.70919 8.30908 9.70919 7.8037C9.70919 6.74884 8.8585 5.8868 7.80364 5.8868C7.29524 5.8868 6.80767 6.08876 6.44818 6.44825C6.0887 6.80773 5.88674 7.2953 5.88674 7.8037C5.88674 8.85856 6.74877 9.70925 7.80364 9.70925ZM9.38026 20.9838V11.49H6.23836V20.9838H9.38026Z" fill="#833D7B"/>
</svg>
