<svg width="265" height="173" viewBox="0 0 265 173" fill="none" xmlns="http://www.w3.org/2000/svg">
<path d="M9.1368 134.091C3.26315 127.8 -0.000403232 119.538 0 110.958C-1.97721e-05 101.955 3.59611 93.3191 9.99925 86.946C16.4024 80.573 25.0895 76.9832 34.1544 76.9643C36.0164 76.9563 37.8756 77.1068 39.7116 77.4144C40.3431 67.2604 44.8497 57.7279 52.3128 50.7599C59.7759 43.792 69.6336 39.9133 79.8764 39.9146C86.1314 39.8989 92.3017 41.3518 97.8838 44.1549C103.301 29.4761 113.693 17.1274 127.276 9.22757C140.859 1.32774 156.787 -1.63067 172.326 0.85997C187.865 3.35061 202.048 11.135 212.44 22.8775C222.831 34.62 228.785 49.5884 229.278 65.2145C239.423 66.3522 248.753 71.2777 255.378 78.993C262.003 86.7082 265.427 96.6363 264.957 106.766C264.487 116.895 260.158 126.468 252.847 133.546C245.535 140.623 235.788 144.675 225.581 144.881H153.804H31.6739C23.0604 144.236 15.0105 140.382 9.1368 134.091Z" fill="#833D7B" fill-opacity="0.79"/>
<path d="M153.804 102.557H112.235V145.03H153.804V102.557Z" fill="#ECD3D8"/>
<path d="M99.0764 102.738H166.741L132.897 63.272L99.0764 102.738Z" fill="#EBD2D8"/>
<path d="M227.895 160.089H42.6452V173H227.895V160.089Z" fill="#DBDBDB"/>
<path d="M180.956 160.089H42.6452V173H180.956V160.089Z" fill="#833D7B"/>
</svg>
